<svg xmlns="http://www.w3.org/2000/svg" xmlns:svg="http://www.w3.org/2000/svg" id="svg2" width="24" height="24" version="1.0" viewBox="0 0 24 24"><metadata id="metadata12"/><g style="opacity:1;fill:#fff;fill-opacity:1;stroke:#3f3f3f;stroke-opacity:1" id="g2146" transform="matrix(0.577533,0,0,0.577548,-16.87666,-28.42836)"><g id="g2137" style="fill:#fff;fill-opacity:1;stroke:#3f3f3f;stroke-opacity:1"><path style="fill:#fff;stroke:#3f3f3f;stroke-width:4;stroke-miterlimit:3.7320509;fill-opacity:1;stroke-opacity:1" id="path2139" d="M 67.50003,70 C 67.50003,79.664978 59.665038,87.5 50.000015,87.5 C 40.335022,87.5 32.5,79.664978 32.5,70 C 32.5,60.335007 40.335022,52.5 50.000015,52.5 C 59.665039,52.5 67.50003,60.335007 67.50003,70 z"/></g></g><g id="g4490" transform="translate(18.08,7.0366028)"><g style="fill:#000;fill-opacity:1;stroke:none;stroke-opacity:1" id="g3710" transform="matrix(0.547312,0,0,0.547312,-33.907641,-27.307988)"><g style="fill:#000;fill-opacity:1;stroke:none;stroke-opacity:1" id="g3712"><path id="path3714" d="M 40.388664,50.722794 L 61.299736,50.722794 L 61.299736,67.54243 L 40.388664,67.54243 L 40.388664,50.722794 z" style="fill:#000;fill-opacity:1;stroke:none;stroke-linecap:square;stroke-miterlimit:10;stroke-opacity:1"/><path id="path3716" d="M 40.869297,51.82356 L 50.8442,59.422615 L 60.82001,51.82356" style="fill:#000;fill-opacity:1;stroke:none;stroke-linecap:square;stroke-miterlimit:10;stroke-opacity:1"/></g></g><path id="path4488" d="M -11.84,0.832 L -6.016,5.184 L -6.016,5.184 L -0.32,0.768" style="fill:none;fill-rule:evenodd;stroke:#fff;stroke-width:1px;stroke-linecap:butt;stroke-linejoin:miter;stroke-opacity:1"/></g></svg>