<svg xmlns="http://www.w3.org/2000/svg" xmlns:svg="http://www.w3.org/2000/svg" id="svg2" width="24" height="24" version="1.0" viewBox="0 0 24 24"><metadata id="metadata13"/><g id="g2003" transform="matrix(0.564538,0,0,0.564538,-16.2269,-27.51766)"><g id="g1992"><ellipse style="fill:#fff;stroke:#000" id="ellipse1994" cx="50" cy="70" rx="20" ry="20"/><ellipse style="fill:none;stroke:#000" id="ellipse1996" cx="50" cy="70" rx="16" ry="16"/></g></g><g id="g3082" transform="matrix(0.563223,0,0,0.6020582,-4.7518555,-12.082328)" style="fill:#fff;fill-opacity:1;stroke:#000;stroke-opacity:1"><g id="g3071" style="fill:#fff;fill-opacity:1;stroke:#000;stroke-opacity:1"><path style="fill:#fff;fill-opacity:1;fill-rule:evenodd;stroke:#000;stroke-linecap:square;stroke-miterlimit:10;stroke-opacity:1" id="path3073" d="M 39,32 L 39,48 L 29,40 L 39,32 z"/><path style="fill:#fff;fill-opacity:1;fill-rule:evenodd;stroke:#000;stroke-linecap:square;stroke-miterlimit:10;stroke-opacity:1" id="path3075" d="M 28,32 L 28,48 L 18,40 L 28,32 z"/></g></g><g id="g2387" transform="matrix(0.545091,0,0,0.582676,-25.320501,-14.036654)"><g id="g2389"><path style="fill:#000;fill-rule:evenodd;stroke:#000;stroke-linecap:square;stroke-miterlimit:10" id="path2391" d="M 39,32 L 39,48 L 29,40 L 39,32 z"/><path style="fill:#000;fill-rule:evenodd;stroke:#000;stroke-linecap:square;stroke-miterlimit:10" id="path2393" d="M 28,32 L 28,48 L 18,40 L 28,32 z"/></g></g></svg>