<svg xmlns="http://www.w3.org/2000/svg" xmlns:cc="http://web.resource.org/cc/" xmlns:svg="http://www.w3.org/2000/svg" id="svg2" width="24" height="24" version="1.0" viewBox="0 0 24 24"><metadata id="metadata11"/><defs id="defs13"><marker id="Dot_m" orient="auto" refX="0" refY="0" style="overflow:visible"><path id="path2888" d="M -2.5,-1.0 C -2.5,1.7600000 -4.7400000,4.0 -7.5,4.0 C -10.260000,4.0 -12.5,1.7600000 -12.5,-1.0 C -12.5,-3.7600000 -10.260000,-6.0 -7.5,-6.0 C -4.7400000,-6.0 -2.5,-3.7600000 -2.5,-1.0 z" transform="scale(0.4) translate(7.4, 1)" style="fill-rule:evenodd;stroke:#000;stroke-width:1pt;marker-start:none;marker-end:none"/></marker><marker id="Dot_s" orient="auto" refX="0" refY="0" style="overflow:visible"><path id="path2885" d="M -2.5,-1.0 C -2.5,1.7600000 -4.7400000,4.0 -7.5,4.0 C -10.260000,4.0 -12.5,1.7600000 -12.5,-1.0 C -12.5,-3.7600000 -10.260000,-6.0 -7.5,-6.0 C -4.7400000,-6.0 -2.5,-3.7600000 -2.5,-1.0 z" transform="scale(0.2) translate(7.4, 1)" style="fill-rule:evenodd;stroke:#000;stroke-width:1pt;marker-start:none;marker-end:none"/></marker><marker id="TriangleOutM" orient="auto" refX="0" refY="0" style="overflow:visible"><path id="path2852" d="M 5.77,0.0 L -2.88,5.0 L -2.88,-5.0 L 5.77,0.0 z" transform="scale(0.4)" style="fill-rule:evenodd;stroke:#000;stroke-width:1pt;marker-start:none"/></marker><marker id="Arrow2Lend" orient="auto" refX="0" refY="0" style="overflow:visible"><path id="path2932" d="M 8.7185878,4.0337352 L -2.2072895,0.016013256 L 8.7185884,-4.0017078 C 6.9730900,-1.6296469 6.9831476,1.6157441 8.7185878,4.0337352 z" transform="scale(1.1) rotate(180) translate(1,0)" style="font-size:12;fill-rule:evenodd;stroke-width:.625;stroke-linejoin:round"/></marker></defs><path style="fill:none;fill-rule:evenodd;stroke:#000;stroke-width:1.75199997;stroke-linecap:butt;stroke-linejoin:miter;marker-start:url(#Dot_m);marker-end:url(#TriangleOutM);stroke-miterlimit:4;stroke-dasharray:3.50400002,1.75200002,.87600001,1.75200002;stroke-dashoffset:0;stroke-opacity:1" id="path1892" d="M 4.9253721,11.872099 C 18.884649,11.872099 18.884649,11.872099 18.884649,11.872099"/><polygon id="polygon3861" points="5 5 135 230 265 5 5 5" transform="matrix(8.235816e-5,-1.923077e-2,1.923077e-2,8.235816e-5,17.41815,14.59574)" style="fill:#fff;fill-opacity:1"/><path style="opacity:1;fill:#fff;fill-opacity:1;stroke:none;stroke-width:1.85800004;stroke-linecap:square;stroke-linejoin:miter;stroke-miterlimit:4;stroke-dasharray:3.716,1.858,.929,1.858;stroke-dashoffset:0;stroke-opacity:1" id="path3877" d="M -2.8738102 4.5675693 A 0.54739243 0.59300846 0 1 1 -3.9685951,4.5675693 A 0.54739243 0.59300846 0 1 1 -2.8738102 4.5675693 z" transform="matrix(4.567107,0,0,4.215791,20.54264,-7.255917)"/></svg>