<svg xmlns="http://www.w3.org/2000/svg" xmlns:cc="http://web.resource.org/cc/" xmlns:svg="http://www.w3.org/2000/svg" id="svg2" width="24" height="24" version="1.0" viewBox="0 0 24 24"><metadata id="metadata25"/><circle style="fill:#fff;stroke:#000;stroke-width:.5;stroke-miterlimit:4;stroke-dasharray:none" id="circle4" cx="12" cy="12" r="11"/><g id="Layer_0" transform="matrix(0.450692,0,0,0.450693,-16.34911,-27.35092)"><g id="g4287"><path style="fill:none;stroke:#000;stroke-linecap:square;stroke-miterlimit:10" id="path4289" d="M 63.309517,87.380875 L 67.44083,87.380875"/><path style="fill:none;stroke:#000;stroke-linecap:square;stroke-miterlimit:10" id="path4291" d="M 63.309517,87.380875 L 64.96204,79.11825"/><path style="fill:none;stroke:#000;stroke-linecap:square;stroke-miterlimit:10" id="path4293" d="M 74.88211,87.31202 C 74.88211,93.928841 69.518127,99.292824 62.901298,99.292824 C 56.284469,99.292824 50.920497,93.928841 50.920497,87.31202 C 50.920497,80.695191 56.284469,75.331216 62.901298,75.331216 C 69.518127,75.331216 74.88211,80.695191 74.88211,87.31202 z"/><path style="fill:none;stroke:#000;stroke-linecap:square;stroke-miterlimit:10" id="path4295" d="M 63.309517,87.380875 L 68.26709,87.380875"/><path style="fill:none;stroke:#000;stroke-linecap:square;stroke-miterlimit:10" id="path4297" d="M 63.309517,87.380875 L 65.78829,79.11825"/><path style="fill:none;stroke:#000;stroke-linecap:square;stroke-miterlimit:10" id="path4299" d="M 57.10279,77.36863 L 58.80196,80.3724"/><path style="fill:none;stroke:#000;stroke-linecap:square;stroke-miterlimit:10" id="path4301" d="M 62.859497,95.27463 L 62.89638,98.94855"/><path style="fill:none;stroke:#000;stroke-linecap:square;stroke-miterlimit:10" id="path4303" d="M 58.80196,94.16803 L 57.005375,97.33608"/><path style="fill:none;stroke:#000;stroke-linecap:square;stroke-miterlimit:10" id="path4305" d="M 55.99857,91.36463 L 52.840485,93.09835"/><path style="fill:none;stroke:#000;stroke-linecap:square;stroke-miterlimit:10" id="path4307" d="M 74.53783,87.380875 L 70.97458,87.380875"/><path style="fill:none;stroke:#000;stroke-linecap:square;stroke-miterlimit:10" id="path4309" d="M 52.758995,81.80917 L 55.851025,83.54465"/><path style="fill:none;stroke:#000;stroke-linecap:square;stroke-miterlimit:10" id="path4311" d="M 69.94174,91.29086 L 73.03377,92.95256"/><path style="fill:none;stroke:#000;stroke-linecap:square;stroke-miterlimit:10" id="path4313" d="M 66.843254,94.2418 L 68.68992,97.393105"/><path style="fill:none;stroke:#000;stroke-linecap:square;stroke-miterlimit:10" id="path4315" d="M 62.89638,75.813194 L 62.93327,79.2658"/><path style="fill:none;stroke:#000;stroke-linecap:square;stroke-miterlimit:10" id="path4317" d="M 68.78739,77.42565 L 66.990814,80.44617"/><path style="fill:none;stroke:#000;stroke-linecap:square;stroke-miterlimit:10" id="path4319" d="M 72.952255,81.66339 L 69.94174,83.32334"/><path style="fill:none;stroke:#000;stroke-linecap:square;stroke-miterlimit:10" id="path4321" d="M 54.891964,87.380875 L 51.32871,87.380875"/></g></g></svg>