<svg xmlns="http://www.w3.org/2000/svg" xmlns:cc="http://web.resource.org/cc/" xmlns:svg="http://www.w3.org/2000/svg" id="svg2" width="24" height="24" version="1.0" viewBox="0 0 24 24"><metadata id="metadata6"/><rect style="opacity:1;fill:#fff;fill-opacity:1;stroke:#000;stroke-width:.5;stroke-linecap:square;stroke-linejoin:round;stroke-miterlimit:0;stroke-dasharray:none;stroke-opacity:1" id="rect5423" width="21.757" height="18.679" x="1.121" y="2.276" rx="2.983" ry="3.714"/><rect style="opacity:1;fill:none;fill-opacity:1;stroke:#000;stroke-width:.5;stroke-linecap:square;stroke-linejoin:round;stroke-miterlimit:0;stroke-dasharray:none;stroke-opacity:1" id="rect1881" width="15.807" height="8.387" x="4.096" y="4.734" rx="2.167" ry="1.667"/><text style="font-size:6px;font-style:normal;font-variant:normal;font-weight:400;font-stretch:normal;text-align:start;line-height:100%;writing-mode:lr-tb;text-anchor:start;fill:#707070;fill-opacity:1;stroke:none;stroke-width:1px;stroke-linecap:butt;stroke-linejoin:miter;stroke-opacity:1;font-family:Arial Narrow;opacity:1" id="text2779" x="6.611" y="10.944" xml:space="preserve"><tspan id="tspan2781" x="6.611" y="10.944">Task</tspan></text><rect style="fill:none;fill-opacity:1;stroke:#000;stroke-width:.3;stroke-linecap:square;stroke-linejoin:miter;stroke-miterlimit:3;stroke-dasharray:none;stroke-opacity:1" id="rect1890" width="4.179" height="4.179" x="12.667" y="15.383"/><rect style="fill:none;fill-opacity:1;stroke:#000;stroke-width:.3243801;stroke-linecap:square;stroke-linejoin:miter;stroke-miterlimit:3;stroke-dasharray:none;stroke-opacity:1" id="rect1888" width="2.16" height=".176" x="13.677" y="17.384"/><g id="g4569" transform="matrix(0.342612,0,0,0.342612,3.478059,14.67218)"><path id="path4560" d="M 20,14 C 22.755093,13.025927 24.407744,10.208668 23.913591,7.3285339 C 23.419439,4.4484002 20.922218,2.3431458 18,2.3431458 C 15.077782,2.3431458 12.580561,4.4484002 12.086409,7.3285339 C 11.592256,10.208668 13.244907,13.025927 16,14" style="fill:none;stroke:#000;stroke-width:2"/><path id="path4562" d="M 11,14 L 16,14 L 16,9" style="fill:none;stroke:#000;stroke-width:2"/></g></svg>