<svg xmlns="http://www.w3.org/2000/svg" xmlns:cc="http://web.resource.org/cc/" xmlns:svg="http://www.w3.org/2000/svg" id="svg2" width="24" height="24" version="1.0" viewBox="0 0 24 24"><metadata id="metadata6"/><rect style="opacity:1;fill:#fff;fill-opacity:1;stroke:#000;stroke-width:.5;stroke-linecap:square;stroke-linejoin:round;stroke-miterlimit:0;stroke-dasharray:none;stroke-opacity:1" id="rect5423" width="21.88" height="15.089" x="1.06" y="4.455" rx="3" ry="3"/><rect style="fill:none;fill-opacity:1;stroke:#000;stroke-width:.3;stroke-linecap:square;stroke-linejoin:miter;stroke-miterlimit:3;stroke-dasharray:none;stroke-opacity:1" id="rect1890" width="4.179" height="4.179" x="12.699" y="13.408"/><g id="Layer_0" transform="matrix(0.107143,0,0,0.107143,2.574157,6.28277)"><g id="g3666"><path id="path3668" d="M 114,74 L 114,98" style="fill:none;stroke:#000;stroke-width:4;stroke-miterlimit:3.7320509"/><path id="path3670" d="M 126,86 L 102,86" style="fill:none;stroke:#000;stroke-width:4;stroke-miterlimit:3.7320509"/></g></g><g id="g3694" transform="matrix(0.342612,0,0,0.342612,3.446059,12.69725)"><path id="path3685" d="M 20,14 C 22.755093,13.025927 24.407744,10.208668 23.913591,7.3285339 C 23.419439,4.4484002 20.922218,2.3431458 18,2.3431458 C 15.077782,2.3431458 12.580561,4.4484002 12.086409,7.3285339 C 11.592256,10.208668 13.244907,13.025927 16,14" style="fill:none;stroke:#000;stroke-width:2"/><path id="path3687" d="M 11,14 L 16,14 L 16,9" style="fill:none;stroke:#000;stroke-width:2"/></g><text style="font-size:3px;font-style:normal;font-variant:normal;font-weight:400;font-stretch:normal;text-align:start;line-height:100%;writing-mode:lr-tb;text-anchor:start;fill:#666;fill-opacity:1;stroke:none;stroke-width:1px;stroke-linecap:butt;stroke-linejoin:miter;stroke-opacity:1;font-family:Arial" id="text2764" x="3.647" y="9.472" xml:space="preserve"><tspan id="tspan2766" x="3.647" y="9.472">Sub process</tspan></text></svg>