<svg xmlns="http://www.w3.org/2000/svg" xmlns:cc="http://web.resource.org/cc/" xmlns:svg="http://www.w3.org/2000/svg" id="svg1307" width="64" height="64"><defs id="defs1309"><marker id="TriangleOutS" orient="auto" refX="0" refY="0" style="overflow:visible"><path id="path2258" d="M 5.77,0.0 L -2.88,5.0 L -2.88,-5.0 L 5.77,0.0 z" transform="scale(0.2)" style="fill-rule:evenodd;stroke:#000;stroke-width:1pt;marker-start:none"/></marker><marker id="Arrow1Lend" orient="auto" refX="0" refY="0" style="overflow:visible"><path id="path2362" d="M 0.0,0.0 L 5.0,-5.0 L -12.5,0.0 L 5.0,5.0 L 0.0,0.0 z" transform="scale(0.8) rotate(180)" style="fill-rule:evenodd;stroke:#000;stroke-width:1pt;marker-start:none"/></marker><marker id="Arrow2Lend" orient="auto" refX="0" refY="0" style="overflow:visible"><path id="path2344" d="M 8.7185878,4.0337352 L -2.2072895,0.016013256 L 8.7185884,-4.0017078 C 6.9730900,-1.6296469 6.9831476,1.6157441 8.7185878,4.0337352 z" transform="scale(1.1) rotate(180) translate(-5,0)" style="font-size:12;fill-rule:evenodd;stroke-width:.625;stroke-linejoin:round"/></marker><marker id="Arrow2Lstart" orient="auto" refX="0" refY="0" style="overflow:visible"><path id="path2347" d="M 8.7185878,4.0337352 L -2.2072895,0.016013256 L 8.7185884,-4.0017078 C 6.9730900,-1.6296469 6.9831476,1.6157441 8.7185878,4.0337352 z" transform="scale(1.1) translate(-5,0)" style="font-size:12;fill-rule:evenodd;stroke-width:.625;stroke-linejoin:round"/></marker></defs><metadata id="metadata1312"/><g id="layer1"><path style="fill:#fff;fill-opacity:1;fill-rule:evenodd;stroke:#000;stroke-width:2.68898392;stroke-linecap:round;stroke-linejoin:round;stroke-miterlimit:4;stroke-dasharray:none;stroke-opacity:1" id="path2431" d="M 36.344492,23.404524 L 36.344492,32.269927 L 49.394115,32.269927 L 49.394115,36.702629 L 62.443736,27.837226 L 49.394115,18.971823 L 49.394115,23.404524 L 36.344492,23.404524 z"/><path style="fill:#fff;fill-opacity:1;fill-rule:evenodd;stroke:#000;stroke-width:2.68686795;stroke-linecap:round;stroke-linejoin:round;stroke-miterlimit:4;stroke-dasharray:none;stroke-opacity:1" id="path2433" d="M 23.818235,36.890667 L 32.767838,36.890667 L 32.767838,49.797177 L 37.242639,49.797177 L 28.293037,62.703687 L 19.343434,49.797177 L 23.818235,49.797177 L 23.818235,36.890667 z"/><path style="fill:none;fill-opacity:.75;fill-rule:evenodd;stroke:#000;stroke-width:4.93580437;stroke-linecap:square;stroke-linejoin:miter;stroke-miterlimit:4;stroke-dasharray:4.93580437,9.87160873;stroke-dashoffset:.98716087;stroke-opacity:1" id="path2453" d="M 12.467902,61.579219 C 12.467902,2.4679022 12.467902,2.4679022 12.467902,2.4679022"/><path style="fill:none;fill-opacity:.75;fill-rule:evenodd;stroke:#000;stroke-width:4.93580437;stroke-linecap:square;stroke-linejoin:miter;stroke-miterlimit:4;stroke-dasharray:4.93580437,9.87160873;stroke-dashoffset:.98716087;stroke-opacity:1" id="path2455" d="M 61.532098,12.579219 C 2.4207808,12.579219 2.4207808,12.579219 2.4207808,12.579219"/></g></svg>